<?xml version="1.0" encoding="UTF-8" standalone="no"?>
<!-- Created with Inkscape (http://www.inkscape.org/) -->

<svg
   xmlns:dc="http://purl.org/dc/elements/1.1/"
   xmlns:cc="http://creativecommons.org/ns#"
   xmlns:rdf="http://www.w3.org/1999/02/22-rdf-syntax-ns#"
   xmlns:svg="http://www.w3.org/2000/svg"
   xmlns="http://www.w3.org/2000/svg"
   xmlns:sodipodi="http://sodipodi.sourceforge.net/DTD/sodipodi-0.dtd"
   xmlns:inkscape="http://www.inkscape.org/namespaces/inkscape"
   width="9.8999996in"
   height="6.8000002in"
   viewBox="0 0 0 800.00001"
   id="svg2"
   version="1.1"
   inkscape:version="0.91 r13725"
   sodipodi:docname="pattern.svg">
  <defs
     id="defs4" />
  <sodipodi:namedview
     id="base"
     pagecolor="#ffffff"
     bordercolor="#666666"
     borderopacity="1.0"
     inkscape:pageopacity="0.0"
     inkscape:pageshadow="2"
     inkscape:zoom="0.49497475"
     inkscape:cx="368.87683"
     inkscape:cy="175.44006"
     inkscape:document-units="px"
     inkscape:current-layer="layer1"
     showgrid="false"
     units="in"
     inkscape:window-width="1366"
     inkscape:window-height="704"
     inkscape:window-x="0"
     inkscape:window-y="27"
     inkscape:window-maximized="1" />
  <metadata
     id="metadata7">
    <rdf:RDF>
      <cc:Work
         rdf:about="">
        <dc:format>image/svg+xml</dc:format>
        <dc:type
           rdf:resource="http://purl.org/dc/dcmitype/StillImage" />
        <dc:title></dc:title>
      </cc:Work>
    </rdf:RDF>
  </metadata>
  <g
     inkscape:label="Layer 1"
     inkscape:groupmode="layer"
     id="layer1"
     transform="translate(0,-440.36229)">
    <path
       id="rect4285"
       style="opacity:1;fill:#ffffff;fill-opacity:1;stroke:#000000;stroke-width:1.25;stroke-miterlimit:4;stroke-dasharray:none;stroke-dashoffset:0;stroke-opacity:1"
       d="m 58.967251,597.85046 786.492919,0 0,292.37113 -786.492919,0 z m 782.179029,351.1717 a 20.301374,20.301374 0 0 1 -20.30137,20.30137 20.301374,20.301374 0 0 1 -20.30137,-20.30137 20.301374,20.301374 0 0 1 20.30137,-20.30138 20.301374,20.301374 0 0 1 20.30137,20.30138 z m -123.41864,0 a 20.301374,20.301374 0 0 1 -20.30137,20.30137 20.301374,20.301374 0 0 1 -20.30137,-20.30137 20.301374,20.301374 0 0 1 20.30137,-20.30138 20.301374,20.301374 0 0 1 20.30137,20.30138 z m -123.41864,0 a 20.301374,20.301374 0 0 1 -20.30137,20.30137 20.301374,20.301374 0 0 1 -20.30138,-20.30137 20.301374,20.301374 0 0 1 20.30138,-20.30138 20.301374,20.301374 0 0 1 20.30137,20.30138 z m -123.41867,0 a 20.301374,20.301374 0 0 1 -20.30137,20.30137 20.301374,20.301374 0 0 1 -20.30138,-20.30137 20.301374,20.301374 0 0 1 20.30138,-20.30138 20.301374,20.301374 0 0 1 20.30137,20.30138 z m -123.41864,0 a 20.301374,20.301374 0 0 1 -20.30137,20.30137 20.301374,20.301374 0 0 1 -20.30138,-20.30137 20.301374,20.301374 0 0 1 20.30138,-20.30138 20.301374,20.301374 0 0 1 20.30137,20.30138 z m -123.41865,0 a 20.301374,20.301374 0 0 1 -20.30138,20.30137 20.301374,20.301374 0 0 1 -20.30137,-20.30137 20.301374,20.301374 0 0 1 20.30137,-20.30138 20.301374,20.301374 0 0 1 20.30138,20.30138 z m -123.41868,2.02032 A 20.301374,20.301374 0 0 1 80.332985,971.34385 20.301374,20.301374 0 0 1 60.03161,951.04248 20.301374,20.301374 0 0 1 80.332985,930.74111 20.301374,20.301374 0 0 1 100.63436,951.04248 Z M 839.17894,548.25122 a 20.301374,20.301374 0 0 1 -20.30138,20.30138 20.301374,20.301374 0 0 1 -20.30137,-20.30138 20.301374,20.301374 0 0 1 20.30137,-20.30137 20.301374,20.301374 0 0 1 20.30138,20.30137 z m -121.39832,2.02033 a 20.301374,20.301374 0 0 1 -20.30137,20.30137 20.301374,20.301374 0 0 1 -20.30138,-20.30137 20.301374,20.301374 0 0 1 20.30138,-20.30138 20.301374,20.301374 0 0 1 20.30137,20.30138 z m -123.41864,0 a 20.301374,20.301374 0 0 1 -20.30137,20.30137 20.301374,20.301374 0 0 1 -20.30138,-20.30137 20.301374,20.301374 0 0 1 20.30138,-20.30138 20.301374,20.301374 0 0 1 20.30137,20.30138 z m -123.41867,0 a 20.301374,20.301374 0 0 1 -20.30137,20.30137 20.301374,20.301374 0 0 1 -20.30138,-20.30137 20.301374,20.301374 0 0 1 20.30138,-20.30138 20.301374,20.301374 0 0 1 20.30137,20.30138 z m -123.41867,0 a 20.301374,20.301374 0 0 1 -20.30137,20.30137 20.301374,20.301374 0 0 1 -20.30138,-20.30137 20.301374,20.301374 0 0 1 20.30138,-20.30138 20.301374,20.301374 0 0 1 20.30137,20.30138 z m -123.41867,0 a 20.301374,20.301374 0 0 1 -20.30137,20.30137 20.301374,20.301374 0 0 1 -20.30138,-20.30137 20.301374,20.301374 0 0 1 20.30138,-20.30138 20.301374,20.301374 0 0 1 20.30137,20.30138 z m -123.41866,0 A 20.301374,20.301374 0 0 1 80.385941,570.57292 20.301374,20.301374 0 0 1 60.084566,550.27155 20.301374,20.301374 0 0 1 80.385941,529.97017 20.301374,20.301374 0 0 1 100.68731,550.27155 Z M 1.1428661,441.99542 l 891.0000039,0 0,611.99998 -891.0000039,0 z" />
  </g>
</svg>
